<svg width="879" height="329" viewBox="0 0 879 329" fill="none" xmlns="http://www.w3.org/2000/svg">
<rect width="879" height="329" rx="164.5" fill="#875CFF"/>
<path d="M713.947 214.963C741.57 214.963 763.963 192.57 763.963 164.947C763.963 137.324 741.57 114.932 713.947 114.932C686.324 114.932 663.932 137.324 663.932 164.947C663.932 192.57 686.324 214.963 713.947 214.963Z" stroke="white" stroke-width="11.5421" stroke-linecap="round" stroke-linejoin="round"/>
<path d="M768.888 219.888L767.887 218.887M767.887 111.007L768.888 110.007L767.887 111.007ZM659.007 219.888L660.007 218.887L659.007 219.888ZM713.947 88.6156V88V88.6156ZM713.947 241.895V241.279V241.895ZM637.616 164.947H637H637.616ZM790.895 164.947H790.279H790.895ZM660.007 111.007L659.007 110.007L660.007 111.007Z" stroke="white" stroke-width="15.3895" stroke-linecap="round" stroke-linejoin="round"/>
<path d="M88.209 168.216C90.9791 207.844 124.605 240.085 164.848 241.855C193.242 243.086 218.635 229.851 233.87 208.998C240.18 200.457 236.794 194.763 226.252 196.687C221.097 197.61 215.788 197.995 210.247 197.764C172.62 196.225 141.841 164.754 141.687 127.588C141.61 117.585 143.688 108.121 147.458 99.5024C151.614 89.961 146.612 85.4211 136.994 89.4993C106.522 102.349 85.6697 133.051 88.209 168.216Z" stroke="white" stroke-width="11.5421" stroke-linecap="round" stroke-linejoin="round"/>
<ellipse cx="164" cy="164.5" rx="131" ry="131.5" transform="rotate(45 164 164.5)" fill="white"/>
<path d="M87.279 241.221C45.1024 199.044 45.2607 130.504 87.6326 88.1324" stroke="#875CFF" stroke-width="26" stroke-linecap="round"/>
</svg>
