<svg width="236" height="102" viewBox="0 0 236 102" fill="none" xmlns="http://www.w3.org/2000/svg">
<rect width="235.385" height="102" rx="51" fill="black"/>
<path d="M89.2187 55.0996C86.5602 55.8057 83.8212 56.1631 81.0705 56.1628C72.6947 56.1628 64.8289 52.9066 58.9208 46.9984C55.0411 43.0963 52.2518 38.2455 50.8311 32.9295C49.4104 27.6134 49.4078 22.0179 50.8236 16.7005C51.0004 16.0357 50.9993 15.3361 50.8203 14.6718C50.6414 14.0075 50.2909 13.402 49.804 12.9159C49.3172 12.4299 48.7111 12.0804 48.0465 11.9025C47.382 11.7247 46.6823 11.7247 46.0178 11.9026C39.361 13.6766 33.2876 17.1698 28.4071 22.032C13.115 37.3241 13.115 62.2161 28.4071 77.5161C32.0419 81.1712 36.3656 84.0691 41.1278 86.0421C45.8901 88.0152 50.9963 89.0242 56.1511 89.0107C61.3045 89.0251 66.4096 88.017 71.1706 86.0445C75.9316 84.0721 80.2539 81.1747 83.8873 77.52C88.7531 72.6385 92.248 66.562 94.0206 59.9014C94.1966 59.2369 94.1952 58.5378 94.0163 57.874C93.8375 57.2101 93.4875 56.6049 93.0014 56.1188C92.5153 55.6327 91.91 55.2827 91.2462 55.1038C90.5824 54.925 89.8833 54.9235 89.2187 55.0996ZM78.3439 71.9728C75.4368 74.8958 71.9789 77.2133 68.1701 78.7911C64.3614 80.3688 60.2776 81.1756 56.155 81.1645C52.0311 81.1748 47.946 80.3674 44.136 78.789C40.326 77.2106 36.8668 74.8925 33.9583 71.9688C21.7261 59.7328 21.7261 39.8192 33.9583 27.5831C36.3219 25.2221 39.0508 23.2576 42.0398 21.7652C41.6023 27.4108 42.3888 33.0842 44.3455 38.3978C46.3022 43.7115 49.3831 48.54 53.3775 52.5535C57.3822 56.5605 62.2093 59.6498 67.5252 61.6081C72.841 63.5663 78.5187 64.3466 84.1658 63.8951C82.6653 66.8791 80.7002 69.6056 78.3439 71.9728Z" fill="#F1C40F"/>
<path d="M161.434 51.0769C161.434 61.9085 170.245 70.7197 181.077 70.7197C191.909 70.7197 200.72 61.9085 200.72 51.0769C200.72 40.2453 191.909 31.4341 181.077 31.4341C170.245 31.4341 161.434 40.2453 161.434 51.0769ZM181.077 39.2802C187.581 39.2802 192.874 44.5724 192.874 51.0769C192.874 57.5814 187.581 62.8736 181.077 62.8736C174.573 62.8736 169.28 57.5814 169.28 51.0769C169.28 44.5724 174.573 39.2802 181.077 39.2802ZM177.146 78.5384H184.992V90.3077H177.146V78.5384ZM177.146 11.8461H184.992V23.6154H177.146V11.8461ZM141.838 47.1538H153.608V55H141.838V47.1538ZM208.531 47.1538H220.3V55H208.531V47.1538ZM150.552 76.0394L158.868 67.7147L164.42 73.2619L156.103 81.5867L150.552 76.0394ZM197.711 28.888L206.036 20.5632L211.583 26.1104L203.258 34.4352L197.711 28.888ZM158.88 34.4391L150.555 26.1144L156.107 20.5671L164.424 28.8919L158.88 34.4391ZM211.583 76.0434L206.036 81.5906L197.711 73.2658L203.258 67.7186L211.583 76.0434Z" fill="#F39C12"/>
<circle cx="55.1538" cy="51.1538" r="43.1538" fill="#F1F1F1"/>
</svg>
